# xmcd
#
# Track frame offsets: 
#        150
#        8093
#        19009
#        32109
#        42917
#        57119
#        68701
#        79346
#        91266
#        101602
#        114249
#        126375
#        138733
#        151985
#        164567
#        176530
#        188183
#        199918
#        212299
#        223855
#        237789
#        250630
#        261659
#        274856
#        286163
#
# Disc length: 3967 seconds
#
# Revision: 0
# Processed by: cddbd v1.5.1PL2 Copyright (c) Steve Scherf et al.
# Submitted via: ExactAudioCopy v0.95b4
#
DISCID=670f7d19
DTITLE=Red Foley - Hillbilly Fever [CD4)
DYEAR=1900
DGENRE=
TTITLE0=Salty Dog Rag
TTITLE1=Don't Let The Stars Get In Your Eyes
TTITLE2=Too Old To Cut The Mustard
TTITLE3=Deep Blues
TTITLE4=Shake A Hand
TTITLE5=No Help Wanted
TTITLE6=Hot Dog Rag
TTITLE7=Hot Toddy
TTITLE8=Double Datin'
TTITLE9=You're A Real Good Friend
TTITLE10=Playin' Dominoes And Shootin' Dice
TTITLE11=It's The Mileage That's Slowin Us Down
TTITLE12=One By One
TTITLE13=Skinnie Minnie Fishtail
TTITLE14=My Window Faces South
TTITLE15=Hearts Of Stone
TTITLE16=As Far As I'm Concerned
TTITLE17=Pinball Boogie
TTITLE18=As Long As I Live
TTITLE19=Hominy Grits
TTITLE20=(A) Satisfied Mind
TTITLE21=Plantation Boogie
TTITLE22=Crawdad Song
TTITLE23=Make Believe ('Til We Can Make It Come True)
TTITLE24=Frosty The Snowman
EXTD=
EXTT0=
EXTT1=
EXTT2=
EXTT3=
EXTT4=
EXTT5=
EXTT6=
EXTT7=
EXTT8=
EXTT9=
EXTT10=
EXTT11=
EXTT12=
EXTT13=
EXTT14=
EXTT15=
EXTT16=
EXTT17=
EXTT18=
EXTT19=
EXTT20=
EXTT21=
EXTT22=
EXTT23=
EXTT24=
PLAYORDER=
